<svg 
    xmlns="http://www.w3.org/2000/svg" 
    id="ID4i-Logo" 
    data-name="ID4i-Logo"
    viewBox="0 0 100 100" 
     >
  <defs>
    <style>
      .black { fill:#0f1c2d }
      .blue { fill:#6daddf }
      .frame { stroke:#0f1c2d; stroke-width:10; stroke-linecap:round; }
    </style>
  </defs>
  <title>ID4i</title>
  <g id="icon">
    <g id="icon-frame" class="black">
        <rect x="0" y="0" width="95" height="10"/>
        <line x1="95" y1="5" x2="95" y2="95" class="frame" />
        <rect x="0" y="90" width="95" height="10"/>
    </g>

    <g id="icon-dots" class="blue">
        <g>
          <line x1="15" y1="25" x2="15" y2="75" style="stroke:#6daddf; stroke-width:10; stroke-linecap:round;"/>
          <rect x="15" y="20" width="5" height="60" />
        </g>
        <rect x="30" y="20" width="10" height="20"/>
        <rect x="30" y="50" width="20" height="10"/>
        <rect x="50" y="40" width="10" height="10"/>
        <rect x="50" y="20" width="10" height="10"/>
        <rect x="50" y="60" width="10" height="20"/>
        <rect x="70" y="20" width="10" height="60"/>
    </g>
  </g>
  <!-- <g id="text" transform="translate(120 18) scale(0.9, 1.07)" stroke-linecap="round"> -->
  <g id="text" transform="translate(120 14) scale(1, 1.2)" stroke-linecap="round">
    <path id="text-I" class="black" d="M 0 56.24 L 0 4.08 A 2.24 2.24 0 0 1 0.079 3.471 A 1.68 1.68 0 0 1 0.56 2.68 Q 1.12 2.16 1.92 2.16 L 9.6 2.16 A 2.407 2.407 0 0 1 10.204 2.232 A 1.708 1.708 0 0 1 11 2.68 A 1.736 1.736 0 0 1 11.477 3.601 A 2.515 2.515 0 0 1 11.52 4.08 L 11.52 56.24 Q 11.52 57.04 11 57.6 Q 10.48 58.16 9.6 58.16 L 1.92 58.16 A 1.85 1.85 0 0 1 0.578 57.617 A 2.2 2.2 0 0 1 0.56 57.6 A 1.849 1.849 0 0 1 0 56.265 A 2.268 2.268 0 0 1 0 56.24 Z" />
    <path id="text-D" class="black" d="M 24 56.24 L 24 4.16 A 2.435 2.435 0 0 1 24.086 3.498 A 1.872 1.872 0 0 1 24.52 2.72 Q 25.04 2.16 25.92 2.16 L 45.44 2.16 A 37.177 37.177 0 0 1 54.659 3.201 Q 66.558 6.256 68.936 18.272 A 32.846 32.846 0 0 1 69.52 23.92 Q 69.651 27.71 69.675 29.472 A 51.494 51.494 0 0 1 69.68 30.16 A 52.585 52.585 0 0 1 69.672 30.974 Q 69.645 32.695 69.52 36.32 A 35.965 35.965 0 0 1 68.854 42.452 Q 68.178 45.776 66.835 48.373 A 16.203 16.203 0 0 1 63.48 52.84 Q 59.173 56.846 51.349 57.836 A 43.996 43.996 0 0 1 45.84 58.16 L 25.92 58.16 A 1.85 1.85 0 0 1 24.578 57.617 A 2.2 2.2 0 0 1 24.56 57.6 A 1.849 1.849 0 0 1 24 56.265 A 2.268 2.268 0 0 1 24 56.24 Z M 35.28 48.88 L 45.44 48.88 Q 49.377 48.88 52.02 47.84 A 8.72 8.72 0 0 0 55.04 45.92 A 8.866 8.866 0 0 0 56.925 43.009 Q 58.063 40.273 58.16 36.08 Q 58.31 31.589 58.319 30.249 A 23.682 23.682 0 0 0 58.32 30.08 Q 58.32 28.8 58.16 24.16 A 22.447 22.447 0 0 0 57.806 20.583 Q 57.077 16.689 54.88 14.52 A 9.435 9.435 0 0 0 51.461 12.415 Q 48.82 11.44 45.04 11.44 L 35.28 11.44 L 35.28 48.88 Z"/>
    <path id="text-4" class="blue" d="M 103.68 56.24 L 103.68 46 L 78.32 46 A 1.85 1.85 0 0 1 76.978 45.457 A 2.2 2.2 0 0 1 76.96 45.44 A 1.849 1.849 0 0 1 76.4 44.105 A 2.268 2.268 0 0 1 76.4 44.08 L 76.4 38.56 A 3.689 3.689 0 0 1 77.004 36.55 A 4.772 4.772 0 0 1 77.28 36.16 L 100.88 3.52 A 2.464 2.464 0 0 1 101.64 2.759 A 3.253 3.253 0 0 1 102.08 2.52 A 4.133 4.133 0 0 1 103.515 2.171 A 4.912 4.912 0 0 1 103.84 2.16 L 112.64 2.16 A 2.407 2.407 0 0 1 113.244 2.232 A 1.708 1.708 0 0 1 114.04 2.68 A 1.736 1.736 0 0 1 114.517 3.601 A 2.515 2.515 0 0 1 114.56 4.08 L 114.56 36.48 L 121.76 36.48 A 2.407 2.407 0 0 1 122.364 36.552 A 1.708 1.708 0 0 1 123.16 37 A 1.736 1.736 0 0 1 123.637 37.921 A 2.515 2.515 0 0 1 123.68 38.4 L 123.68 44.08 Q 123.68 44.88 123.16 45.44 Q 122.64 46 121.76 46 L 114.56 46 L 114.56 56.24 Q 114.56 57.04 114.04 57.6 Q 113.52 58.16 112.64 58.16 L 105.6 58.16 A 1.85 1.85 0 0 1 104.258 57.617 A 2.2 2.2 0 0 1 104.24 57.6 A 1.849 1.849 0 0 1 103.68 56.265 A 2.268 2.268 0 0 1 103.68 56.24 Z M 103.92 13.84 L 87.68 36.8 L 103.92 36.8 L 103.92 13.84 Z"/>
    <path id="text-i" class="blue" d="M 131.52 56.24 L 131.52 18.48 A 2.24 2.24 0 0 1 131.599 17.871 A 1.68 1.68 0 0 1 132.08 17.08 Q 132.64 16.56 133.44 16.56 L 140.24 16.56 A 1.85 1.85 0 0 1 141.583 17.103 A 2.2 2.2 0 0 1 141.6 17.12 A 1.849 1.849 0 0 1 142.16 18.455 A 2.268 2.268 0 0 1 142.16 18.48 L 142.16 56.24 A 1.85 1.85 0 0 1 141.617 57.583 A 2.2 2.2 0 0 1 141.6 57.6 A 1.849 1.849 0 0 1 140.265 58.16 A 2.268 2.268 0 0 1 140.24 58.16 L 133.44 58.16 A 1.85 1.85 0 0 1 132.098 57.617 A 2.2 2.2 0 0 1 132.08 57.6 A 1.849 1.849 0 0 1 131.52 56.265 A 2.268 2.268 0 0 1 131.52 56.24 Z M 131.2 7.84 L 131.2 2 A 2.258 2.258 0 0 1 131.3 1.315 A 1.839 1.839 0 0 1 131.76 0.56 A 1.849 1.849 0 0 1 133.095 0 A 2.268 2.268 0 0 1 133.12 0 L 140.48 0 A 2.258 2.258 0 0 1 141.166 0.1 A 1.839 1.839 0 0 1 141.92 0.56 Q 142.48 1.12 142.48 2 L 142.48 7.84 A 1.781 1.781 0 0 1 141.935 9.147 A 2.25 2.25 0 0 1 141.88 9.2 Q 141.28 9.76 140.48 9.76 L 133.12 9.76 A 1.85 1.85 0 0 1 131.778 9.217 A 2.2 2.2 0 0 1 131.76 9.2 A 1.849 1.849 0 0 1 131.2 7.865 A 2.268 2.268 0 0 1 131.2 7.84 Z"/>
  </g>
</svg>